<svg xmlns="http://www.w3.org/2000/svg" viewBox="0 0 164.73 52.78"><title>Asset 1</title><g id="Layer_2" data-name="Layer 2"><g id="Layer_1-2" data-name="Layer 1"><path d="M26.39,23.29q3.27,2.63,3.27,8.25a11.93,11.93,0,0,1-1.51,5.94,11.06,11.06,0,0,1-4.46,4.32,14.32,14.32,0,0,1-7,1.62A15.13,15.13,0,0,1,9.9,41.9a13.38,13.38,0,0,1-5-4.17v5H.22V29H4.54A10.87,10.87,0,0,0,8.17,36.4a12.1,12.1,0,0,0,8.32,2.84,8.65,8.65,0,0,0,5.83-1.8,6.3,6.3,0,0,0,2.09-5,7.52,7.52,0,0,0-.94-4.07,6.07,6.07,0,0,0-3-2.3,29.55,29.55,0,0,0-5.86-1.48l-1.73-.29q-6.12-1-9.51-3.92A9.88,9.88,0,0,1,0,12.46,10.11,10.11,0,0,1,3.46,4.28q3.45-2.91,9.28-2.91a15.71,15.71,0,0,1,6,1.11,10.64,10.64,0,0,1,4.35,3.21V2.16h4.61V13.61H23.47Q22.1,5.54,13,5.54A8.63,8.63,0,0,0,7.31,7.27a5.71,5.71,0,0,0-2,4.61A5.66,5.66,0,0,0,7.42,16.6,15.11,15.11,0,0,0,14,19.08l1.65.29C20.62,20.23,24.2,21.54,26.39,23.29Z"/><path d="M40.1,42.7,28.58,6h-5V2.16H39.46V6H34.2L43,35.21,53.42,2.88h4.25L68.18,35.21,76.75,6H71.5V2.16H86.62V6h-5L70.42,42.7h-5L55.22,12,45.14,42.7Z"/><path d="M76.32,52.78,96.48,0H101L80.85,52.78Z"/><path d="M97.85,42.7V35.93h6.76V42.7Z"/><path d="M127,28a7.28,7.28,0,0,1,4.43,7.24,6.87,6.87,0,0,1-3.17,6.12,13.58,13.58,0,0,1-7.63,2.09,15.41,15.41,0,0,1-5.19-.87,10.1,10.1,0,0,1-3.88-2.3V42.7h-4.18V32.9h3.74l.29,3.1A7.82,7.82,0,0,0,115,38.77a12.67,12.67,0,0,0,4.93,1,8.67,8.67,0,0,0,4.61-1.11,3.39,3.39,0,0,0,1.8-3,3.5,3.5,0,0,0-1.37-3.1,15.63,15.63,0,0,0-5.11-1.72l-4-.87a16.12,16.12,0,0,1-6.48-2.84c-1.4-1.18-2.09-3-2.09-5.51a6.8,6.8,0,0,1,2.91-5.8,12.54,12.54,0,0,1,7.53-2.12,15.48,15.48,0,0,1,4.57.72,9.19,9.19,0,0,1,3.71,2V14.26h4.25V24H126.5l-.5-3.53a7.74,7.74,0,0,0-3.21-2.13,11.54,11.54,0,0,0-4.21-.82,8.35,8.35,0,0,0-4.25,1,3.24,3.24,0,0,0-1.72,3,2.79,2.79,0,0,0,1.22,2.44A13,13,0,0,0,118,25.49l3.67.79A30.14,30.14,0,0,1,127,28ZM110.52,34.2a.29.29,0,0,0,.07.22Z"/></g><g id="Layer_2-2" data-name="Layer 2"><path d="M159.55,38.88V23.11a9.07,9.07,0,0,0-2.66-6.95,9.47,9.47,0,0,0-6.7-2.48q-4.83,0-10.66,3.89V1.44H129V5.18h5.19v33.7h-2.7A10.93,10.93,0,0,1,129,42v.72h15.19V38.88h-4.61V21.17q5-3.32,9.36-3.31a4.89,4.89,0,0,1,3.93,1.65,7,7,0,0,1,1.4,4.61V38.88h-4.68V42.7h15.19V38.88Z"/></g></g></svg>