<svg xmlns="http://www.w3.org/2000/svg" viewBox="0 0 170.9 53.42"><title>Asset 2</title><g id="Layer_2" data-name="Layer 2"><g id="Layer_1-2" data-name="Layer 1"><path d="M30.38,22.64q3.32,3,3.32,8.75A12,12,0,0,1,30,40.57q-3.73,3.49-10.15,3.49a18.51,18.51,0,0,1-7.2-1.44,13.25,13.25,0,0,1-5.4-3.88v4.6H.29v-14H6.48a12,12,0,0,0,4.32,6.37,12.22,12.22,0,0,0,7.63,2.41,6.88,6.88,0,0,0,4.5-1.33,4.62,4.62,0,0,0,1.62-3.78A4.74,4.74,0,0,0,22.86,29a16,16,0,0,0-6.08-2.12l-3.68-.72q-6.48-1.3-9.79-4.43A11,11,0,0,1,0,13.32,11,11,0,0,1,3.67,4.61q3.68-3.24,9.79-3.24a18.14,18.14,0,0,1,6.81,1.19A12.94,12.94,0,0,1,25.2,5.9V2.16h6.48V14h-6a10.5,10.5,0,0,0-3.42-4.82,10.42,10.42,0,0,0-6.73-2A6.71,6.71,0,0,0,11.2,8.53,4.16,4.16,0,0,0,9.65,12a4.33,4.33,0,0,0,1.91,3.78,16.27,16.27,0,0,0,6.08,2.13l2.23.43Q27.07,19.66,30.38,22.64Z"/><path d="M43.06,43.34,31.39,8.21H27.22V2.16H44.64V8.21H40.25l6.69,22.1L56.23,3.17H62.5l9.21,27.14,6.84-22.1H73.8V2.16H90.5V8.21H86.26L75,43.34H68.33L59,17,49.82,43.34Z"/><path d="M78.55,53.42,99.07,0h7.27L85.82,53.42Z"/><path d="M97.49,43.34V35.21h8.56v8.13Z"/><path d="M131.5,29Q134,31,134,35.28a7.65,7.65,0,0,1-3.06,6.48,12.24,12.24,0,0,1-7.6,2.3,17.52,17.52,0,0,1-5.22-.75,11,11,0,0,1-4-2.13v2.16h-5.76V33.77h5.33l.21,2.88a10.35,10.35,0,0,0,3.31,1.83,11.79,11.79,0,0,0,4,.69,6.37,6.37,0,0,0,3.46-.83,2.58,2.58,0,0,0,1.3-2.27,2.65,2.65,0,0,0-1.19-2.41,15.32,15.32,0,0,0-4.29-1.48l-3.09-.64q-4.83-1.08-7-3.06a7.52,7.52,0,0,1-2.12-5.8,7.73,7.73,0,0,1,2.91-6.37A12,12,0,0,1,118.94,14a14.62,14.62,0,0,1,4.36.65,12.64,12.64,0,0,1,3.56,1.65V14.62h5.83V24h-5.32l-.44-3.32a8,8,0,0,0-2.81-1.36,11.65,11.65,0,0,0-3.31-.51,5.84,5.84,0,0,0-3.13.79,2.51,2.51,0,0,0-1.26,2.24,2.3,2.3,0,0,0,1,2A9.57,9.57,0,0,0,120.67,25l3.24.72A18.87,18.87,0,0,1,131.5,29Z"/><path d="M166.65,37.94V23.83A9.8,9.8,0,0,0,164,16.67a9.34,9.34,0,0,0-7-2.7,18.19,18.19,0,0,0-9.86,3.31V1.44h-13V6.77h4.18V37.94h-.21a11.59,11.59,0,0,1-3.45,5.4h16v-5.4h-3.6V22.18a12.77,12.77,0,0,1,6.41-2.09,4,4,0,0,1,3.24,1.37,5.72,5.72,0,0,1,1.15,3.81V37.94h-3.67v5.4H170.9v-5.4Z"/></g></g></svg>